# xmcd CD database file
#
# Track frame offsets:
#	182
#	17665
#	33815
#	48507
#	68497
#	83590
#	105992
#	121522
#	133595
#	151155
#	175665
#	192715
#
# Disc length: 2775 seconds
#
# Revision: 0
# Processed by: cddbd v1.4b42PL1 Copyright (c) Steve Scherf et al.
# Submitted via: CDex 1.40Beta8
#
DISCID=850ad50c
DTITLE=Head Hands and Feet - Tracks...Plus
DYEAR=1996
DGENRE=Country
TTITLE0=Let's Ge This Show On The Road
TTITLE1=Safety In Numbers
TTITLE2=Roadshow
TTITLE3=Harlequin
TTITLE4=Dancer
TTITLE5=Hot Property
TTITLE6=Jack Daniels
TTITLE7=Rhyme And Time
TTITLE8=Paper Chase
TTITLE9=Song And Dance
TTITLE10=Silver Mine
TTITLE11=Warming Up The Band
EXTD=YEAR: 1996 ID3G: 2
EXTT0=
EXTT1=
EXTT2=
EXTT3=
EXTT4=
EXTT5=
EXTT6=
EXTT7=
EXTT8=
EXTT9=
EXTT10=
EXTT11=
PLAYORDER=
